<svg xmlns="http://www.w3.org/2000/svg" width="853" height="238" viewBox="0 0 853 238" version="1.1"><path d="M 127.204 39.250 C 121.791 46.538, 102.799 72.075, 85 96 C 67.201 119.925, 47.543 146.362, 41.316 154.750 L 29.993 170 79.497 170 L 129 170 129 152.028 L 129 134.056 115.620 133.778 L 102.240 133.500 122.870 106.306 L 143.500 79.112 143.757 146.556 L 144.014 214 163.007 214 L 182 214 182 120 L 182 26 159.523 26 L 137.047 26 127.204 39.250" stroke="none" fill="#f24237" fill-rule="evenodd"/><path d="M 219 119.500 L 219 214 238 214 L 257 214 257 184 L 257 154 267.250 154.007 L 277.500 154.015 296 183.628 C 306.175 199.916, 314.961 213.422, 315.524 213.641 C 316.087 213.861, 326.326 213.919, 338.277 213.770 L 360.007 213.500 340.431 182.500 C 329.665 165.450, 320.003 150.300, 318.960 148.834 L 317.064 146.167 321.974 143.017 C 328.773 138.654, 338.878 127.646, 342.659 120.484 C 344.397 117.193, 346.811 111.213, 348.023 107.195 C 349.963 100.770, 350.170 98.299, 349.744 86.695 C 349.165 70.958, 347.250 64.531, 339.831 53.439 C 330.687 39.768, 319.200 31.538, 303.020 27.067 C 296.061 25.144, 292.875 25, 257.270 25 L 219 25 219 119.500 M 380 119.500 L 380 214 438 214 L 496 214 496 196 L 496 178 456 178 L 416 178 416 157 L 416 136 446 136 L 476 136 476 119 L 476 102 447 102 L 418 102 418 81 L 418 60 457 60 L 496 60 496 42.500 L 496 25 438 25 L 380 25 380 119.500 M 514 119.385 L 514 214 532.500 214 L 551 214 551 161.917 C 551 130.200, 551.364 109.964, 551.931 110.167 C 552.443 110.350, 577.341 134.184, 607.260 163.130 C 637.179 192.077, 663.310 217.211, 665.329 218.984 L 669 222.207 669 123.604 L 669 25 650.508 25 L 632.017 25 631.758 81.453 L 631.500 137.907 587.500 95.401 C 563.300 72.023, 536.862 46.567, 528.750 38.832 L 514 24.770 514 119.385 M 684 42.500 L 684 60 755.986 60 L 827.973 60 827.902 42.500 L 827.831 25 755.916 25 L 684 25 684 42.500 M 257 88.897 L 257 118 271.818 118 C 288.766 118, 294.533 116.763, 301.163 111.706 C 303.591 109.854, 306.612 106.170, 308.207 103.118 C 310.601 98.535, 310.999 96.610, 310.990 89.636 C 310.978 79.536, 308.354 73.242, 301.721 67.403 C 295.196 61.660, 291.780 60.803, 273.250 60.266 L 257 59.794 257 88.897 M 738 144 L 738 214 756.500 214 L 775 214 775 144 L 775 74 756.500 74 L 738 74 738 144" stroke="none" fill="#292929" fill-rule="evenodd"/></svg>